<svg width="65" height="70" viewBox="0 0 65 70" fill="none" xmlns="http://www.w3.org/2000/svg">
<path d="M53.9527 52.0012C62.3487 41.4344 55.9829 25.9878 42.2046 25.2501C41.5147 25.1855 40.7434 25.2516 40.0788 25.2932C40.2031 34.3394 35.9074 44.1828 28.517 46.6746C21.8475 48.8879 18.1833 42.4522 20.9357 36.9986C24.2323 30.5231 30.0387 25.1482 37.1035 23.1797C36.5381 17.4844 33.7599 12.4125 27.6185 10.6945C17.2678 7.8204 6.49364 17.3681 4.98841 27.127C4.89565 28.1567 3.30272 28.0767 3.39548 27.0469C3.98732 13.9139 19.7395 3.55212 31.9628 9.5787C36.6881 11.96 39.2277 16.975 39.8996 22.6457C47.3233 21.7146 54.415 26.014 58.2418 32.1879C62.6406 39.3502 60.6002 47.328 55.6096 53.2987C54.827 54.264 53.2765 52.9415 53.9527 52.0012ZM26.7754 33.1845C24.8343 35.4256 22.6994 38.2717 22.4212 41.3609C22.1176 44.3438 26.1813 44.4134 27.9117 44.1254C30.0685 43.7391 31.6338 41.809 32.798 40.0835C35.4208 36.4527 37.1637 31.0083 37.2824 25.8272C33.2016 27.1062 29.631 30.0599 26.7754 33.1845Z" fill="#6366F1"/>
<path d="M51.4067 58.7765C50.7006 55.8027 50.1825 52.6734 50.2476 49.6335C50.29 48.3915 52.0146 48.553 52.0789 49.7707C52.2074 52.2057 52.894 54.6239 53.5553 56.9358C54.9154 56.5095 56.3822 56.0586 57.7172 55.526C58.7325 55.0674 60.1546 53.9546 61.3716 54.3456C61.9803 54.541 62.1064 55.072 62.0192 55.6524C61.7889 57.05 59.5509 57.5671 58.429 58.0504C56.5862 58.8123 54.7998 59.3369 52.8813 59.7802C52.2422 59.9278 51.558 59.4137 51.4067 58.7765Z" fill="#6366F1"/>
</svg>
